Coordinates
version=1
nRows=41
nColumns=38
inDegrees=no

Units are S.I. units (second, meters, Newtons, ...)
If the header above contains a line with 'inDegrees', this indicates whether rotational values are in degrees (yes) or radians (no).

endheader
time	pelvis_tilt	pelvis_list	pelvis_rotation	pelvis_tx	pelvis_ty	pelvis_tz	hip_flexion_r	hip_adduction_r	hip_rotation_r	knee_angle_r	ankle_angle_r	subtalar_angle_r	mtp_angle_r	hip_flexion_l	hip_adduction_l	hip_rotation_l	knee_angle_l	ankle_angle_l	subtalar_angle_l	mtp_angle_l	lumbar_extension	lumbar_bending	lumbar_rotation	arm_flex_r	arm_add_r	arm_rot_r	elbow_flex_r	pro_sup_r	wrist_flex_r	wrist_dev_r	arm_flex_l	arm_add_l	arm_rot_l	elbow_flex_l	pro_sup_l	wrist_flex_l	wrist_dev_l
23.39	0.21497	1.46944	1.40576	0.355979	1.8516	1.06054	0.208974	0.0223812	0.0856614	0.321058	-0.207511	0	0	0.132535	-0.227624	-0.350736	0.95793	-0.107088	0	0	-0.176391	0.00880615	0.100727	0.0597665	-0.569372	0.576566	1.16424	1.01379	0	0	-0.0661965	-0.414104	0.236513	1.11494	1.55172	0	0
23.4	0.175596	1.47211	1.44526	0.356398	1.85379	1.06136	0.202584	0.0183814	0.0876247	0.318569	-0.20606	0	0	0.139053	-0.224139	-0.351372	0.952686	-0.099283	0	0	-0.180117	0.00424393	0.101731	0.0546266	-0.568039	0.574069	1.16573	1.01511	0	0	-0.0670386	-0.415729	0.237821	1.11339	1.55292	0	0
23.41	0.127282	1.47419	1.49422	0.356782	1.85604	1.06208	0.196369	0.0137555	0.0899242	0.315779	-0.204014	0	0	0.145656	-0.219359	-0.350313	0.942922	-0.0935905	0	0	-0.182816	-0.00115836	0.102205	0.048656	-0.565788	0.57059	1.1668	1.01707	0	0	-0.0682907	-0.417611	0.238948	1.11216	1.55397	0	0
23.42	0.0821128	1.4759	1.5398	0.357072	1.8582	1.06293	0.19009	0.00930894	0.0899977	0.311558	-0.203005	0	0	0.151846	-0.214079	-0.347609	0.92869	-0.0900234	0	0	-0.185604	-0.00603084	0.103013	0.042746	-0.56332	0.566418	1.16723	1.01961	0	0	-0.0690666	-0.418785	0.240064	1.1103	1.55557	0	0
23.43	0.0311582	1.47729	1.5915	0.357325	1.86038	1.06372	0.183637	0.00442727	0.0900194	0.306779	-0.202351	0	0	0.157635	-0.207455	-0.342721	0.910957	-0.0878493	0	0	-0.187897	-0.0114048	0.103608	0.0363814	-0.560451	0.561708	1.16753	1.02252	0	0	-0.0698432	-0.420125	0.241252	1.10857	1.55755	0	0
23.44	-0.0234521	1.47855	1.64701	0.357496	1.86255	1.06454	0.176874	-0.000873157	0.0889109	0.301422	-0.202144	0	0	0.162489	-0.199315	-0.335409	0.889626	-0.0864282	0	0	-0.190216	-0.0170317	0.104225	0.0296612	-0.557222	0.556015	1.16756	1.0264	0	0	-0.0703186	-0.421483	0.242811	1.10687	1.56012	0	0
23.45	-0.0780768	1.47879	1.70304	0.357516	1.86464	1.06527	0.171239	-0.00646468	0.0863772	0.29664	-0.202354	0	0	0.167968	-0.191347	-0.329348	0.867227	-0.0865966	0	0	-0.191783	-0.0224615	0.104355	0.0229167	-0.554012	0.550158	1.16751	1.03054	0	0	-0.0709051	-0.422501	0.244169	1.10524	1.56257	0	0
23.46	-0.129453	1.47824	1.75626	0.357372	1.86665	1.06592	0.166436	-0.0121339	0.0828322	0.292152	-0.202776	0	0	0.173951	-0.183655	-0.324348	0.844704	-0.0880341	0	0	-0.19275	-0.0274276	0.103974	0.0163666	-0.551104	0.54447	1.16747	1.03512	0	0	-0.0715647	-0.423287	0.245533	1.10358	1.56556	0	0
23.47	-0.179223	1.47745	1.80769	0.35715	1.86858	1.06655	0.161801	-0.0177852	0.0791103	0.287725	-0.203158	0	0	0.17942	-0.175682	-0.319694	0.821985	-0.0890014	0	0	-0.193739	-0.0321365	0.103709	0.0101433	-0.54876	0.539243	1.16762	1.04007	0	0	-0.0721275	-0.423789	0.246778	1.1018	1.56949	0	0
23.48	-0.225314	1.47677	1.85479	0.356927	1.87048	1.06717	0.157171	-0.0229081	0.075807	0.283823	-0.203395	0	0	0.183869	-0.167923	-0.315926	0.799726	-0.0885855	0	0	-0.194883	-0.0363915	0.103914	0.00446734	-0.547108	0.535043	1.16792	1.04417	0	0	-0.0727725	-0.424125	0.248082	1.10008	1.5708	0	0
23.49	-0.266179	1.47584	1.89646	0.356654	1.87234	1.0677	0.152772	-0.0274865	0.0724392	0.280138	-0.20352	0	0	0.187848	-0.160392	-0.312838	0.778339	-0.0868212	0	0	-0.19567	-0.0402003	0.104341	-0.00166729	-0.545269	0.530203	1.16825	1.04742	0	0	-0.0735186	-0.424417	0.249787	1.09865	1.5708	0	0
23.5	-0.299921	1.47495	1.93112	0.356332	1.87415	1.06813	0.148443	-0.0311978	0.0688614	0.276945	-0.203179	0	0	0.191645	-0.153709	-0.310985	0.759058	-0.0836841	0	0	-0.196335	-0.0432999	0.104732	-0.00805513	-0.543553	0.524981	1.16889	1.04999	0	0	-0.0745104	-0.424623	0.251312	1.09769	1.5708	0	0
23.51	-0.328119	1.47431	1.96005	0.355936	1.87594	1.0685	0.144035	-0.034495	0.0656015	0.273405	-0.202902	0	0	0.194911	-0.147669	-0.310141	0.741661	-0.0796639	0	0	-0.197057	-0.0456956	0.105277	-0.0140699	-0.542833	0.520436	1.16997	1.05329	0	0	-0.0756878	-0.424599	0.252713	1.09684	1.5708	0	0
23.52	-0.349724	1.47391	1.98209	0.355477	1.87767	1.06878	0.139823	-0.0372194	0.0632667	0.269796	-0.203	0	0	0.197992	-0.142596	-0.310452	0.726416	-0.075236	0	0	-0.197764	-0.0472964	0.106006	-0.0198443	-0.542684	0.516218	1.17131	1.05673	0	0	-0.0769382	-0.424459	0.254388	1.09591	1.5708	0	0
23.53	-0.363499	1.47359	1.99588	0.354974	1.87933	1.06896	0.136304	-0.0390913	0.062656	0.26724	-0.202994	0	0	0.201311	-0.138809	-0.312055	0.713677	-0.0718586	0	0	-0.198117	-0.0481084	0.106907	-0.0252646	-0.542857	0.512579	1.1726	1.05924	0	0	-0.0786403	-0.424007	0.255732	1.09501	1.5708	0	0
23.54	-0.371801	1.4735	2.00424	0.354416	1.88097	1.06904	0.132784	-0.0401699	0.0627626	0.265107	-0.202277	0	0	0.204231	-0.135444	-0.312691	0.701623	-0.0688713	0	0	-0.198214	-0.0482051	0.107901	-0.0309328	-0.543363	0.508933	1.17427	1.06147	0	0	-0.0804209	-0.423518	0.257412	1.09413	1.5708	0	0
23.55	-0.373427	1.47394	2.00589	0.353779	1.88267	1.06905	0.129487	-0.0407845	0.0612603	0.263487	-0.201477	0	0	0.20646	-0.132969	-0.312883	0.690341	-0.0667931	0	0	-0.198134	-0.0473506	0.109096	-0.0369439	-0.544357	0.505344	1.17637	1.06365	0	0	-0.0826933	-0.422565	0.258902	1.09359	1.5708	0	0
23.56	-0.368503	1.47436	2.00058	0.353056	1.88437	1.06895	0.126802	-0.0407483	0.0612802	0.262482	-0.200619	0	0	0.20861	-0.131201	-0.312984	0.680257	-0.0657169	0	0	-0.197389	-0.045754	0.110365	-0.0427481	-0.545866	0.502617	1.17856	1.06506	0	0	-0.0858159	-0.421261	0.259814	1.09343	1.5708	0	0
23.57	-0.358396	1.47471	1.98955	0.352326	1.88611	1.06875	0.1247	-0.0402231	0.0619387	0.262124	-0.199352	0	0	0.210382	-0.129864	-0.3127	0.670726	-0.0662712	0	0	-0.195897	-0.0436249	0.112266	-0.0489213	-0.547647	0.499924	1.18086	1.06645	0	0	-0.0890993	-0.419938	0.261072	1.0932	1.5708	0	0
23.58	-0.342526	1.47521	1.97283	0.351587	1.88787	1.06848	0.123095	-0.0392627	0.0615785	0.262607	-0.197665	0	0	0.211883	-0.129126	-0.311684	0.662267	-0.0695871	0	0	-0.193887	-0.040915	0.114207	-0.0552679	-0.549444	0.497293	1.18299	1.06786	0	0	-0.0925589	-0.41862	0.262406	1.09305	1.5708	0	0
23.59	-0.31993	1.47582	1.94952	0.350799	1.88962	1.06815	0.121867	-0.0376042	0.0626366	0.26385	-0.195905	0	0	0.2131	-0.128946	-0.310013	0.654771	-0.076744	0	0	-0.191398	-0.0375323	0.116017	-0.0616902	-0.551266	0.494658	1.18493	1.06928	0	0	-0.0962854	-0.417201	0.263642	1.09287	1.5708	0	0
23.6	-0.294906	1.47657	1.92374	0.34993	1.89139	1.06777	0.121031	-0.0359309	0.063126	0.26614	-0.194033	0	0	0.213468	-0.128817	-0.308245	0.647311	-0.0898716	0	0	-0.188595	-0.0337601	0.117794	-0.0682731	-0.553256	0.491892	1.18688	1.07103	0	0	-0.10014	-0.415726	0.265186	1.09245	1.5708	0	0
23.61	-0.161829	1.42795	1.84712	0.344626	1.90016	1.06187	0.146361	-0.0436472	-0.0232229	0.235799	-0.197163	0	0	0.275914	-0.111333	-0.238322	0.64163	-0.116462	0	0	-0.102644	-0.0358292	0.0681324	-0.102426	-0.516234	0.482106	1.14926	1.08614	0	0	-0.129796	-0.429093	0.272839	1.07888	1.5708	0	0
23.62	-0.140999	1.42194	1.82878	0.343391	1.90195	1.0606	0.15347	-0.0442238	-0.0270462	0.241739	-0.1953	0	0	0.281595	-0.10217	-0.209882	0.642076	-0.108284	0	0	-0.0902553	-0.03384	0.0643784	-0.108451	-0.514984	0.481162	1.14677	1.09301	0	0	-0.138208	-0.428757	0.272296	1.07914	1.5708	0	0
23.63	-0.125752	1.41959	1.81634	0.342215	1.90481	1.05944	0.153955	-0.0443205	-0.0367368	0.244655	-0.190009	0	0	0.281864	-0.10744	-0.226884	0.627182	-0.145641	0	0	-0.0796363	-0.0317938	0.060483	-0.117317	-0.513571	0.479402	1.14575	1.09955	0	0	-0.149237	-0.429124	0.271082	1.08114	1.5708	0	0
23.64	-0.104313	1.42188	1.79264	0.341586	1.90649	1.05891	0.152896	-0.0410837	-0.0345578	0.250195	-0.184929	0	0	0.276243	-0.110309	-0.227871	0.620879	-0.153797	0	0	-0.0781585	-0.0270813	0.0615039	-0.122277	-0.515832	0.477846	1.14842	1.10372	0	0	-0.155818	-0.427746	0.269646	1.08393	1.5708	0	0
23.65	-0.0770957	1.42977	1.75807	0.341602	1.9075	1.05909	0.147767	-0.0344768	-0.0230711	0.256777	-0.180754	0	0	0.26357	-0.117678	-0.236209	0.616631	-0.151368	0	0	-0.0855982	-0.020187	0.0674728	-0.124174	-0.521038	0.47682	1.15412	1.10543	0	0	-0.159137	-0.425281	0.268147	1.08746	1.5708	0	0
23.66	-0.0521618	1.43275	1.73127	0.340808	1.90925	1.0587	0.144808	-0.0309806	-0.0217696	0.260267	-0.177116	0	0	0.255539	-0.12163	-0.241165	0.613404	-0.145076	0	0	-0.0850137	-0.0150694	0.0682414	-0.129573	-0.523594	0.474902	1.15739	1.10583	0	0	-0.165388	-0.423683	0.267257	1.08991	1.5708	0	0
23.67	-0.0286337	1.43614	1.70453	0.340169	1.91092	1.05855	0.141555	-0.0273549	-0.0182037	0.2635	-0.174329	0	0	0.246068	-0.125807	-0.249446	0.609395	-0.138886	0	0	-0.0852202	-0.0104456	0.0698145	-0.133526	-0.526051	0.474004	1.15968	1.10664	0	0	-0.171291	-0.421969	0.266261	1.09181	1.5708	0	0
23.68	-0.012195	1.43675	1.68785	0.339122	1.91296	1.05822	0.139596	-0.0259993	-0.0199214	0.264726	-0.172732	0	0	0.239234	-0.127162	-0.254803	0.603189	-0.13574	0	0	-0.0810905	-0.00762091	0.0683849	-0.138684	-0.526459	0.4728	1.15957	1.10791	0	0	-0.178551	-0.420817	0.265411	1.09279	1.5708	0	0
23.69	0.0109484	1.43688	1.65846	0.338789	1.91464	1.0582	0.140325	-0.0222644	-0.0115019	0.267851	-0.17208	0	0	0.231748	-0.13094	-0.265672	0.595125	-0.134306	0	0	-0.0778023	-0.00411776	0.072121	-0.141241	-0.527073	0.472618	1.15777	1.10943	0	0	-0.184704	-0.418296	0.263963	1.09232	1.5708	0	0
23.7	0.0228387	1.44089	1.64113	0.338559	1.9158	1.05863	0.137246	-0.0197585	-0.00257324	0.272718	-0.169865	0	0	0.220763	-0.133352	-0.276015	0.586946	-0.134148	0	0	-0.0805167	-0.00209904	0.0753102	-0.141975	-0.527958	0.472374	1.15721	1.11206	0	0	-0.188682	-0.416391	0.262014	1.09309	1.5708	0	0
23.71	0.0313303	1.44176	1.6314	0.337819	1.91718	1.05877	0.135674	-0.0188954	-0.000806238	0.275173	-0.168265	0	0	0.214701	-0.133715	-0.280908	0.580816	-0.134273	0	0	-0.079074	-0.00110787	0.0746007	-0.144142	-0.527118	0.47126	1.15512	1.11496	0	0	-0.193619	-0.415341	0.260609	1.09355	1.5708	0	0
23.72	0.0313869	1.44864	1.63119	0.337105	1.91801	1.05958	0.127906	-0.019103	-0.00040942	0.277274	-0.166154	0	0	0.203232	-0.133252	-0.284359	0.575153	-0.135358	0	0	-0.0867374	-0.00110194	0.0724171	-0.143502	-0.526733	0.469973	1.15493	1.11931	0	0	-0.196464	-0.415441	0.258656	1.09679	1.5708	0	0
23.73	0.04372	1.44422	1.61882	0.335987	1.91963	1.05936	0.131012	-0.0189638	-2.02023e-06	0.277115	-0.16662	0	0	0.203904	-0.133698	-0.287765	0.571114	-0.135776	0	0	-0.078873	0.000163044	0.0708994	-0.147389	-0.524883	0.468318	1.15081	1.1207	0	0	-0.202251	-0.413506	0.257763	1.09532	1.5708	0	0
23.74	0.0396311	1.44815	1.6225	0.335222	1.9203	1.05995	0.126793	-0.0202097	0.00122158	0.279604	-0.166134	0	0	0.196424	-0.132605	-0.290245	0.566622	-0.137349	0	0	-0.0823126	-0.000440346	0.0686719	-0.146677	-0.523569	0.46766	1.14854	1.12336	0	0	-0.205163	-0.413261	0.256379	1.09696	1.5708	0	0
23.75	0.0410112	1.44836	1.62133	0.334203	1.92129	1.06021	0.125376	-0.0211443	0.00103301	0.28006	-0.165853	0	0	0.192843	-0.131745	-0.291569	0.562495	-0.138372	0	0	-0.0813876	-0.000406253	0.0668094	-0.148036	-0.522682	0.466454	1.14622	1.12528	0	0	-0.208792	-0.41177	0.255034	1.09752	1.5708	0	0
23.76	0.0412622	1.44814	1.62183	0.333127	1.92232	1.0604	0.124053	-0.0223973	-0.000447739	0.279993	-0.165708	0	0	0.189776	-0.130519	-0.291895	0.558255	-0.139143	0	0	-0.0795895	-0.000542045	0.0647001	-0.149585	-0.52197	0.465474	1.14386	1.12707	0	0	-0.212356	-0.410321	0.254009	1.09774	1.5708	0	0
23.77	0.0400006	1.44805	1.6241	0.332015	1.92331	1.06058	0.122408	-0.0239956	-0.00287944	0.279548	-0.165663	0	0	0.186656	-0.1289	-0.291664	0.55378	-0.140018	0	0	-0.0778273	-0.000801037	0.0623944	-0.151095	-0.521499	0.464638	1.14172	1.1292	0	0	-0.21578	-0.409029	0.253149	1.09799	1.5708	0	0
23.78	0.0353677	1.44928	1.62862	0.331007	1.92409	1.06091	0.119907	-0.0258854	-0.00423848	0.279541	-0.16575	0	0	0.181642	-0.126588	-0.29138	0.547785	-0.1417	0	0	-0.0782154	-0.00133238	0.0607149	-0.151544	-0.521376	0.463912	1.14005	1.13259	0	0	-0.218704	-0.407714	0.252068	1.09878	1.5708	0	0
23.79	0.029499	1.4518	1.63322	0.330101	1.92469	1.06132	0.116533	-0.0276089	-0.00383293	0.280202	-0.165553	0	0	0.175494	-0.124585	-0.293294	0.54278	-0.142962	0	0	-0.0808719	-0.00170372	0.0607867	-0.152102	-0.522582	0.462763	1.14034	1.13456	0	0	-0.220313	-0.40628	0.251645	1.10004	1.5708	0	0
